# xmcd
#
# Track frame offsets:
#	187
#	12934
#	29634
#	41744
#	53307
#	66804
#	83964
#	97404
#	115769
#	127872
#	140819
#
# Disc length: 2059 seconds
#
# Revision: 3
# Processed by: cddbd v1.4PL0 Copyright (c) Steve Scherf et al.
# Submitted via: CDmax 1.9
#
DISCID=9608090b
DTITLE=Chet Atkins and Les Paul - Chester and Lester Guitar Monsters
DYEAR=1900
DGENRE=Blues
TTITLE0=Limehouse Blues
TTITLE1=I Want to Be Happy
TTITLE2=Over the Rainbow
TTITLE3=Meditation
TTITLE4=Lazy River
TTITLE5=I'm You Greatest Fan
TTITLE6=It Don't Mean A Thing (If it Ain't Got That Swing)
TTITLE7=I Surrender Dear
TTITLE8=Brazil
TTITLE9=Give My Love to Nell
TTITLE10=Hot Toddy
EXTD=
EXTT0=
EXTT1=
EXTT2=
EXTT3=
EXTT4=
EXTT5=
EXTT6=
EXTT7=
EXTT8=
EXTT9=
EXTT10=
PLAYORDER=
